<?xml version="1.0" encoding="utf-8"?>
<!-- Generator: Adobe Illustrator 23.0.1, SVG Export Plug-In . SVG Version: 6.00 Build 0)  -->
<svg version="1.1" id="Layer_1" xmlns="http://www.w3.org/2000/svg" xmlns:xlink="http://www.w3.org/1999/xlink" x="0px" y="0px"
	 viewBox="0 0 500 500" style="enable-background:new 0 0 500 500;" xml:space="preserve">
<style type="text/css">
	.st0{display:none;clip-path:url(#SVGID_2_);fill:#213E66;}
	.st1{clip-path:url(#SVGID_2_);fill:#41AA37;}
	.st2{clip-path:url(#SVGID_2_);fill:#F29100;}
	.st3{clip-path:url(#SVGID_4_);fill:url(#SVGID_5_);}
	.st4{clip-path:url(#SVGID_7_);fill:url(#SVGID_8_);}
	.st5{clip-path:url(#SVGID_10_);fill:url(#SVGID_11_);}
	.st6{clip-path:url(#SVGID_13_);fill:#41AA37;}
	.st7{clip-path:url(#SVGID_15_);fill:url(#SVGID_16_);}
	.st8{clip-path:url(#SVGID_18_);fill:url(#SVGID_19_);}
	.st9{clip-path:url(#SVGID_21_);fill:#F29100;}
	.st10{clip-path:url(#SVGID_21_);fill:#213E66;}
</style>
<g>
	<defs>
		<rect id="SVGID_1_" x="-208.19" y="-157" width="921.38" height="921.38"/>
	</defs>
	<clipPath id="SVGID_2_">
		<use xlink:href="#SVGID_1_"  style="overflow:visible;"/>
	</clipPath>
	<path class="st0" d="M-27.6,425.39l39.87-29.4l23.41,31.76c1.54,2.09,2.67,3.96,3.39,5.63c0.72,1.67,1.03,3.24,0.91,4.7
		c-0.12,1.46-0.69,2.87-1.72,4.22c-1.03,1.36-2.53,2.76-4.5,4.21l-2.49,1.84c-3.79,2.79-7.26,2.64-10.44-0.45
		c1.05,1.91,1.44,3.89,1.16,5.94c-0.28,2.05-1.61,3.96-4.01,5.73l-2.61,1.92c-2.05,1.51-3.93,2.54-5.64,3.08
		c-1.71,0.55-3.34,0.63-4.88,0.24c-1.54-0.39-3.04-1.23-4.51-2.53c-1.47-1.3-2.98-3.02-4.55-5.14L-27.6,425.39z M12.04,451.98
		c1.47-1.08,2.29-2.12,2.48-3.13c0.19-1-0.32-2.31-1.51-3.94l-17.86-24.22l-9.16,6.75l17.64,23.93c1.28,1.74,2.43,2.7,3.43,2.89
		c1,0.18,2.18-0.22,3.53-1.22L12.04,451.98z M26.94,439.56c1.28-0.94,1.97-1.86,2.09-2.75c0.11-0.89-0.29-1.98-1.23-3.25
		l-17.64-23.93l-8.64,6.36l17.68,23.99c0.91,1.23,1.84,1.91,2.78,2.02c0.95,0.11,2.09-0.34,3.45-1.33L26.94,439.56z"/>
	<path class="st0" d="M66.91,523.85l2.24-12.89l-23.51-18.44l-11.98,5.24l-8.72-6.84l51.92-22.23l7.98,6.27l-9.21,55.72
		L66.91,523.85z M74.88,479.5l-21.5,9.21l17.68,13.86L74.88,479.5z"/>
	
		<rect x="386.33" y="497.74" transform="matrix(0.8896 -0.4568 0.4568 0.8896 -195.489 236.4082)" class="st0" width="9.72" height="49.53"/>
	<polygon class="st0" points="471.65,497.55 444.27,494.65 441.06,514.42 444.85,519.13 437.23,525.28 406.16,486.7 413.78,480.56 
		433.38,504.89 440.59,458.97 451.52,450.17 445.69,485.74 482.47,488.83 	"/>
	<polygon class="st0" points="504.59,464.19 464.54,435.04 492.56,396.57 500.47,402.33 478.18,432.95 487.03,439.39 508.68,409.65 
		515.14,414.35 493.49,444.1 502.45,450.62 524.74,420.01 532.6,425.73 	"/>
	<path class="st1" d="M299.63,165.79l-133.88-9.51l91.56,91.04l0,0c0.93,0.99,1.87,1.98,2.8,2.97c4.95,5.24,10.8,3.91,13.03-2.98
		c0.92-2.85,2-6.2,3.16-9.83L299.63,165.79z"/>
	<path class="st2" d="M139.26,215.38l-20.87,48.71c0.89,1.99,1.39,4.18,1.39,6.5c-0.02,8.88-7.33,16.06-16.34,16.04
		c-9.01-0.02-16.3-7.23-16.28-16.11c0.01-7.04,4.63-13,11.03-15.16l20.74-48.5c-4.92-1.16-10.04-1.79-15.32-1.8
		c-36.7-0.07-66.51,29.19-66.59,65.36c-0.07,36.18,29.62,65.56,66.32,65.63c36.7,0.07,66.52-29.19,66.59-65.36
		C169.98,247.46,157.74,227.04,139.26,215.38"/>
	<path class="st1" d="M348.64,232.24l37.16,38.13c-0.11,2.17,0.22,4.4,1.07,6.56c3.24,8.29,12.68,12.42,21.08,9.22
		c8.4-3.19,12.6-12.49,9.36-20.78c-2.57-6.57-9.04-10.51-15.8-10.28l-36.96-37.99c4.18-2.81,8.73-5.21,13.66-7.08
		c34.25-13,72.71,3.82,85.9,37.58c13.19,33.76-3.88,71.66-38.12,84.66c-34.25,13-72.71-3.82-85.9-37.58
		C331.6,273.01,335.62,249.64,348.64,232.24"/>
	<path class="st1" d="M312.45,270.97c0.04-20.64,7.28-39.59,19.34-54.6c-6.42-6.67-12.76-13.26-19.3-20.05
		c-0.6,1.32-1.07,2.14-1.36,3.02c-6.17,18.95-12.44,37.86-18.33,56.9c-0.16,0.53-0.24,1.11-0.24,1.73c3.75,4.59,6,10.42,5.99,16.77
		c-0.02,8.44-4.02,15.94-10.23,20.81c-2.55,2.11-5.37,3.6-8.43,4.48c-2.66,0.86-5.5,1.33-8.46,1.33
		c-5.37-0.01-10.35-1.58-14.56-4.25c-2.72-1.56-5.02-3.61-6.82-6.18c-3.53-4.52-5.65-10.16-5.64-16.3c0.01-2.6,0.41-5.11,1.12-7.49
		c-0.5-1.42-1.32-2.75-2.57-4.07c-27.19-28.62-85.75-89.58-85.75-89.58s-5.23,12.23-8.83,20.63c26.79,15.32,44.79,43.9,44.72,76.62
		c-0.06,31.68-17.05,59.41-42.49,74.95c34.83,0.07,68.82,0.14,102.78,0.21c33.75,0.07,67.5,0.14,101.26,0.21
		C329.26,330.45,312.39,302.64,312.45,270.97"/>
</g>
<g>
	<defs>
		<path id="SVGID_3_" d="M99.09,86.71l16.37,16.44c36.25-33.34,84.64-53.66,137.77-53.56c54.08,0.11,103.17,21.36,139.48,55.91
			l16.44-16.37c-40.5-38.75-95.39-62.6-155.87-62.73h0c-0.15,0-0.31,0-0.46,0C193.46,26.41,139.45,49.29,99.09,86.71"/>
	</defs>
	<clipPath id="SVGID_4_">
		<use xlink:href="#SVGID_3_"  style="overflow:visible;"/>
	</clipPath>
	
		<radialGradient id="SVGID_5_" cx="-0.4457" cy="500.1808" r="1.8427" gradientTransform="matrix(175.7791 -52.2099 -52.2099 -175.7791 26247.8203 88065.7578)" gradientUnits="userSpaceOnUse">
		<stop  offset="0" style="stop-color:#F29100"/>
		<stop  offset="0.099" style="stop-color:#F29100"/>
		<stop  offset="0.8119" style="stop-color:#41AA37"/>
		<stop  offset="1" style="stop-color:#41AA37"/>
	</radialGradient>
	<polygon class="st3" points="77.5,32.82 384.01,-58.22 430.74,99.1 124.23,190.14 	"/>
</g>
<g>
	<defs>
		<path id="SVGID_6_" d="M392.71,105.51c22.96,21.85,40.81,49.02,51.57,79.52l24.45,0.05c-11.54-36.94-32.29-69.83-59.58-95.94
			L392.71,105.51z"/>
	</defs>
	<clipPath id="SVGID_7_">
		<use xlink:href="#SVGID_6_"  style="overflow:visible;"/>
	</clipPath>
	
		<radialGradient id="SVGID_8_" cx="-0.4457" cy="500.1808" r="1.8427" gradientTransform="matrix(175.7791 -52.2099 -52.2099 -175.7791 26247.8203 88065.7578)" gradientUnits="userSpaceOnUse">
		<stop  offset="0" style="stop-color:#F29100"/>
		<stop  offset="0.099" style="stop-color:#F29100"/>
		<stop  offset="0.8119" style="stop-color:#41AA37"/>
		<stop  offset="1" style="stop-color:#41AA37"/>
	</radialGradient>
	<polygon class="st4" points="366.52,96.91 462.57,68.39 494.91,177.3 398.87,205.83 	"/>
</g>
<g>
	<defs>
		<path id="SVGID_9_" d="M37.2,184.21l24.44,0.05c11.19-31.3,29.85-59.05,53.82-81.11L99.09,86.71
			C70.75,113,49.16,146.46,37.2,184.21"/>
	</defs>
	<clipPath id="SVGID_10_">
		<use xlink:href="#SVGID_9_"  style="overflow:visible;"/>
	</clipPath>
	
		<radialGradient id="SVGID_11_" cx="-0.4457" cy="500.1808" r="1.8427" gradientTransform="matrix(175.7791 -52.2099 -52.2099 -175.7791 26247.8203 88065.7578)" gradientUnits="userSpaceOnUse">
		<stop  offset="0" style="stop-color:#F29100"/>
		<stop  offset="0.099" style="stop-color:#F29100"/>
		<stop  offset="0.8119" style="stop-color:#41AA37"/>
		<stop  offset="1" style="stop-color:#41AA37"/>
	</radialGradient>
	<polygon class="st5" points="10.58,94.62 109.12,65.35 142.09,176.35 43.55,205.62 	"/>
</g>
<g>
	<defs>
		<rect id="SVGID_12_" x="-208.19" y="-157" width="921.38" height="921.38"/>
	</defs>
	<clipPath id="SVGID_13_">
		<use xlink:href="#SVGID_12_"  style="overflow:visible;"/>
	</clipPath>
	<path class="st6" d="M478.99,253.03L478.99,253.03c0.05-23.67-3.55-46.49-10.25-67.95l-24.45-0.05
		c7.5,21.25,11.57,44.12,11.52,67.95c-0.03,12.05-1.12,23.84-3.16,35.3l23.51,0.05C477.98,276.83,478.96,265.04,478.99,253.03"/>
</g>
<g>
	<defs>
		<path id="SVGID_14_" d="M432.25,347.51c-8.31,15.67-18.6,30.13-30.56,43.03l16.37,16.44c16.31-17.45,29.89-37.48,40.05-59.42
			c8.59-18.52,14.73-38.4,18.04-59.23l-23.51-0.05C448.9,309.32,441.94,329.24,432.25,347.51"/>
	</defs>
	<clipPath id="SVGID_15_">
		<use xlink:href="#SVGID_14_"  style="overflow:visible;"/>
	</clipPath>
	
		<linearGradient id="SVGID_16_" gradientUnits="userSpaceOnUse" x1="-0.8972" y1="498.2175" x2="0.9456" y2="498.2175" gradientTransform="matrix(26.0683 -56.071 -56.071 -26.0683 28374.3086 13335.7246)">
		<stop  offset="0" style="stop-color:#213E66"/>
		<stop  offset="0.0387" style="stop-color:#213E66"/>
		<stop  offset="0.471" style="stop-color:#31754E"/>
		<stop  offset="0.818" style="stop-color:#3D9C3D"/>
		<stop  offset="1" style="stop-color:#41AA37"/>
	</linearGradient>
	<polygon class="st7" points="356.31,385.88 414.92,259.82 521.53,309.38 462.92,435.44 	"/>
</g>
<g>
	<defs>
		<path id="SVGID_17_" d="M47.14,346.73c10.45,22.79,24.57,43.55,41.62,61.51l16.44-16.37c-12.68-13.43-23.53-28.59-32.19-45.09
			c-9.61-18.3-16.49-38.25-20.14-59.3l-23.52-0.05C32.58,308.27,38.63,328.18,47.14,346.73"/>
	</defs>
	<clipPath id="SVGID_18_">
		<use xlink:href="#SVGID_17_"  style="overflow:visible;"/>
	</clipPath>
	
		<linearGradient id="SVGID_19_" gradientUnits="userSpaceOnUse" x1="-0.1477" y1="498.1931" x2="1.695" y2="498.1931" gradientTransform="matrix(33.2047 50.8991 50.8991 -33.2047 -25316.3672 16850.209)">
		<stop  offset="0" style="stop-color:#F29100"/>
		<stop  offset="0.0995" style="stop-color:#F29100"/>
		<stop  offset="0.2361" style="stop-color:#D8870D"/>
		<stop  offset="0.5285" style="stop-color:#966C2D"/>
		<stop  offset="0.9508" style="stop-color:#2D4360"/>
		<stop  offset="0.9967" style="stop-color:#213E66"/>
		<stop  offset="1" style="stop-color:#213E66"/>
	</linearGradient>
	<polygon class="st8" points="82.55,252.72 160.48,372.18 51.99,442.95 -25.94,323.5 	"/>
</g>
<g>
	<defs>
		<rect id="SVGID_20_" x="-208.19" y="-157" width="921.38" height="921.38"/>
	</defs>
	<clipPath id="SVGID_21_">
		<use xlink:href="#SVGID_20_"  style="overflow:visible;"/>
	</clipPath>
	<path class="st9" d="M49.85,252.17c0.05-23.83,4.21-46.68,11.79-67.91l-24.44-0.05c-6.79,21.43-10.49,44.23-10.54,67.91
		c-0.03,12.01,0.91,23.8,2.69,35.31l23.52,0.05C50.87,276.01,49.82,264.21,49.85,252.17"/>
	<path class="st10" d="M252.41,455.55c-58.02-0.12-110.31-24.57-147.22-63.68l-16.44,16.37c41.11,43.31,99.18,70.37,163.61,70.5
		L252.41,455.55z"/>
	<path class="st10" d="M401.69,390.53c-37.16,40.08-90.3,65.13-149.27,65.01l-0.05,23.19h0c65.37,0.13,124.31-27.5,165.69-71.76
		L401.69,390.53z"/>
</g>
</svg>
